<svg width="580" height="113" xmlns="http://www.w3.org/2000/svg">
 <!-- Created with Method Draw - http://github.com/duopixel/Method-Draw/ -->

 <g>
  <title>background</title>
  <rect fill="none" id="canvas_background" height="115" width="582" y="-1" x="-1"/>
  <g display="none" overflow="visible" y="0" x="0" height="100%" width="100%" id="canvasGrid">
   <rect fill="url(#gridpattern)" stroke-width="0" y="0" x="0" height="100%" width="100%"/>
  </g>
 </g>
 <g>
  <title>Layer 1</title>
  <g stroke="null" id="svg_10">
   <polygon stroke="#ffffff" id="svg_5" fill="#ffdf3f" stroke-linecap="round" stroke-miterlimit="10" points="59.41478983632396,2.052032470703125 77.05524252724081,37.80748771434037 116.51593460752429,43.54015393988993 87.96506785286329,71.37048219284861 94.70694280985481,110.67651700132501 59.41478983632396,92.1195991489576 24.122636862793115,110.67651700132501 30.86392500564375,71.37048219284861 2.302978515625,43.54015393988993 41.76308570574838,37.80748771434037 59.41478983632396,2.052032470703125 "/>
   <polygon stroke="#ffffff" id="svg_6" fill="#ffdf3f" stroke-linecap="round" stroke-miterlimit="10" points="174.68754765851372,2.052032470703125 192.32858908755225,37.80748771434037 231.78921960045045,43.54015393988993 203.23842210909788,71.37048219284861 209.979696784083,110.67651700132501 174.68754765851372,92.1195991489576 139.39592185571928,110.67651700132501 146.13727348993598,71.37048219284861 117.57632507593644,43.54015393988993 157.03643996198298,37.80748771434037 174.68754765851372,2.052032470703125 "/>
   <polygon stroke="#ffffff" id="svg_7" fill="#ffdf3f" stroke-linecap="round" stroke-miterlimit="10" points="290.9903239883679,2.052032470703125 308.63138080925273,37.80748771434037 348.0920728895362,43.54015393988993 319.54121383079837,71.37048219284861 326.28256546501507,110.67651700132501 290.9903239883679,92.1195991489576 255.69819025464494,110.67651700132501 262.4395264970153,71.37048219284861 233.87852421155367,43.54015393988993 273.33923168368347,37.80748771434037 290.9903239883679,2.052032470703125 "/>
   <polygon stroke="#ffffff" id="svg_8" fill="#ffdf3f" stroke-linecap="round" stroke-miterlimit="10" points="407.2931157100684,2.052032470703125 424.9336492081784,37.80748771434037 464.3942797210766,43.54015393988993 435.8433898786461,71.37048219284861 442.5853264030229,110.67651700132501 407.2931157100684,92.1195991489576 372.0009665844991,110.67651700132501 378.7423182187158,71.37048219284861 350.18130054140784,43.54015393988993 389.6414077315312,37.80748771434037 407.2931157100684,2.052032470703125 "/>
   <polygon stroke="#ffffff" id="svg_9" fill="#ffdf3f" stroke-linecap="round" stroke-miterlimit="10" points="523.595384108994,2.052032470703125 541.2364101461862,37.80748771434037 580.6971022264697,43.54015393988993 552.1462123840392,71.37048219284861 558.8875948019486,110.67651700132501 523.595384108994,92.1195991489576 488.3032349834248,110.67651700132501 495.0445250502562,71.37048219284861 466.4835689403335,43.54015393988993 505.944261020617,37.80748771434037 523.595384108994,2.052032470703125 "/>
  </g>
 </g>
</svg>