<svg id="Layer_1" data-name="Layer 1" xmlns="http://www.w3.org/2000/svg" viewBox="0 0 564.12 107.58"><title>stars</title><polygon points="56.56 1.13 73.7 35.87 112.04 41.44 84.3 68.48 90.85 106.67 56.56 88.64 22.27 106.67 28.82 68.48 1.07 41.44 39.41 35.87 56.56 1.13" style="fill:#f07c29;stroke:#f07c29;stroke-linecap:round;stroke-miterlimit:10"/><polygon points="168.56 1.13 185.7 35.87 224.04 41.44 196.3 68.48 202.85 106.67 168.56 88.64 134.27 106.67 140.82 68.48 113.07 41.44 151.41 35.87 168.56 1.13" style="fill:#f07c29;stroke:#f07c29;stroke-linecap:round;stroke-miterlimit:10"/><polygon points="281.56 1.13 298.7 35.87 337.04 41.44 309.3 68.48 315.85 106.67 281.56 88.64 247.27 106.67 253.82 68.48 226.07 41.44 264.41 35.87 281.56 1.13" style="fill:#f07c29;stroke:#f07c29;stroke-linecap:round;stroke-miterlimit:10"/><polygon points="394.56 1.13 411.7 35.87 450.04 41.44 422.3 68.48 428.85 106.67 394.56 88.64 360.27 106.67 366.82 68.48 339.07 41.44 377.41 35.87 394.56 1.13" style="fill:#f07c29;stroke:#f07c29;stroke-linecap:round;stroke-miterlimit:10"/><polygon points="507.56 1.13 524.7 35.87 563.04 41.44 535.3 68.48 541.85 106.67 507.56 88.64 473.27 106.67 479.82 68.48 452.07 41.44 490.41 35.87 507.56 1.13" style="fill:#f07c29;stroke:#f07c29;stroke-linecap:round;stroke-miterlimit:10"/></svg>